<svg xmlns="http://www.w3.org/2000/svg" width="59" height="38" viewBox="0 0 59 38">
    <g fill="none" fill-rule="evenodd">
        <path fill="#009FDB" d="M24.443 26.306c.072.414.064.528.064.789 0 3.11-5.446 5.617-12.244 5.617-2.565 0-4.942-.358-6.907-.97C2.119 30.732 0 29.031 0 27.095c0-.26.037-.526.087-.79.08-.42.17-.996.295-1.654.345-1.865.895-4.46 1.57-6.512.259-.795.538-1.509.831-2.067.098-.212.224-.419.373-.62.945-1.263 2.877-2.276 5.302-2.809.043-.008.092-.024.13-.03-.068-.039-.122-.087-.185-.13-1.3-.865-2.284-2.143-2.739-3.646a6.463 6.463 0 0 1-.279-1.866c0-3.692 3.081-6.674 6.878-6.674 3.8 0 6.881 2.982 6.881 6.674 0 .639-.095 1.249-.27 1.83a6.711 6.711 0 0 1-2.824 3.736c-.037.024-.072.051-.106.076.026.004.049.012.07.017 2.848.615 5.016 1.886 5.736 3.449 1.055 1.998 1.922 5.987 2.4 8.572.123.658.218 1.232.293 1.655M58.681 26.306c.073.414.064.528.064.789 0 3.11-5.445 5.617-12.244 5.617-2.565 0-4.942-.358-6.907-.97-3.237-1.01-5.356-2.711-5.356-4.647 0-.26.037-.526.087-.79.081-.42.17-.996.295-1.654.345-1.865.895-4.46 1.57-6.512.26-.795.538-1.509.831-2.067.098-.212.224-.419.374-.62.945-1.263 2.876-2.276 5.302-2.809.043-.008.091-.024.129-.03-.068-.039-.121-.087-.184-.13-1.301-.865-2.285-2.143-2.74-3.646a6.463 6.463 0 0 1-.279-1.866c0-3.692 3.082-6.674 6.878-6.674 3.8 0 6.882 2.982 6.882 6.674 0 .639-.096 1.249-.27 1.83a6.711 6.711 0 0 1-2.825 3.736c-.036.024-.071.051-.106.076.026.004.049.012.071.017 2.848.615 5.016 1.886 5.735 3.449 1.055 1.998 1.922 5.987 2.4 8.572.123.658.218 1.232.293 1.655"/>
        <path fill="#D4145A" d="M30.268 36.856c-.376 0-.392-.01-2.9-1.66-1.143-.75-2.692-1.79-3.576-2.478-2.345-1.823-4.07-3.608-5.275-5.456-1.493-2.29-1.703-5.336-.534-7.762 1.057-2.194 3.03-3.58 5.557-3.903.27-.035.56-.052.86-.052 1.652 0 3.6.52 4.865 1.506 1.183-1.273 3.18-1.997 4.91-1.997.062 0 .124 0 .185.003 2.67.081 4.988 1.412 6.36 3.65 1.418 2.31 1.563 5.17.38 7.462-1.01 1.956-2.545 3.898-4.692 5.938-.81.77-2.244 1.955-3.305 2.813-2.27 1.837-2.393 1.936-2.775 1.936h-.06"/>
        <path fill="#FFF" d="M34.175 14.015c-1.69 0-3.604.613-5.005 1.716-1.4-.81-3.178-1.226-4.77-1.226-.347 0-.683.021-1 .061-2.859.367-5.186 2.004-6.386 4.493-1.32 2.739-1.085 6.177.599 8.76 1.269 1.946 3.072 3.814 5.51 5.71.912.709 2.486 1.766 3.645 2.528.74.487 1.345.875 1.64 1.063.932.595 1.213.775 1.867.775.77 0 1.103-.262 1.99-.96.274-.216.836-.66 1.522-1.216 1.077-.87 2.535-2.076 3.37-2.869 2.233-2.122 3.835-4.156 4.899-6.215 1.345-2.607 1.186-5.848-.417-8.46-1.563-2.549-4.204-4.064-7.245-4.157a6.685 6.685 0 0 0-.219-.003m0 2.078c.05 0 .102 0 .152.002 5.23.16 7.83 5.707 5.816 9.608-1.084 2.1-2.701 3.968-4.483 5.662-1.49 1.416-5.36 4.452-5.385 4.452-.028 0-4.187-2.645-5.814-3.91-1.946-1.513-3.746-3.216-5.04-5.2-2.404-3.688-.93-9.416 4.259-10.08.227-.03.468-.044.72-.044 1.925 0 4.405.839 5.004 2.261.496-1.623 2.818-2.751 4.771-2.751"/>
    </g>
</svg>
