<svg xmlns="http://www.w3.org/2000/svg" xmlns:xlink="http://www.w3.org/1999/xlink" width="77" height="17" viewBox="0 0 77 17">
    <defs>
        <path id="a" d="M0 .038h15.912v16.057H0z"/>
        <path id="c" d="M.19.049h15.913v16.057H.19z"/>
    </defs>
    <g fill="none" fill-rule="evenodd">
        <path fill="#0F61A9" d="M38.857.83c0 .06.017.119.052.173.035.056.098.13.19.225.124-.072.214-.138.27-.2a.29.29 0 0 0 .084-.195c0-.071-.026-.13-.079-.177a.294.294 0 0 0-.207-.071.348.348 0 0 0-.224.07.215.215 0 0 0-.086.175m.19 1.72a.598.598 0 0 0 .453-.195l-.584-.57a.812.812 0 0 0-.236.202.35.35 0 0 0-.07.212c0 .106.04.19.121.254.08.064.187.096.316.096m-.08.461c-.297.001-.537-.067-.72-.206a.672.672 0 0 1-.115-.978c.107-.131.263-.246.467-.344a1.464 1.464 0 0 1-.258-.33.647.647 0 0 1-.076-.3c-.001-.14.038-.262.115-.367a.742.742 0 0 1 .32-.244c.135-.056.287-.085.457-.085.27-.002.486.057.646.175.16.118.241.276.242.472 0 .271-.212.51-.638.715l.45.437a5.523 5.523 0 0 0 .13-.202l.16-.272.6-.001-.271.446c-.081.132-.16.251-.237.36l.697.671-.764.003-.303-.29a1.18 1.18 0 0 1-.4.256 1.425 1.425 0 0 1-.502.084M36.289.747L35.39.75 35.39.198 37.864.19l.002.552-.898.003.005 2.207-.678.003zM33.968 1.856l.73-.002-.365-1.048-.365 1.05zm.026-1.692l.683-.001 1.135 2.756-.734.002-.193-.544-1.097.004-.188.544-.727.003 1.12-2.764zM41.626.747l-.9.003V.198L43.2.19l.002.552-.899.003.006 2.207-.678.003zM45.385.187l.678-.002.008 2.76-.678.002zM47.635 2.988a2.62 2.62 0 0 1-.58-.062 1.846 1.846 0 0 1-.484-.176l.18-.501c.28.12.561.18.844.178.354 0 .53-.094.53-.28a.19.19 0 0 0-.043-.127.42.42 0 0 0-.152-.096 2.537 2.537 0 0 0-.324-.1l-.186-.046c-.268-.068-.463-.165-.584-.29a.691.691 0 0 1-.183-.5c0-.176.044-.33.135-.458a.833.833 0 0 1 .388-.295c.168-.067.366-.102.593-.103.167 0 .333.019.497.056.164.038.312.09.441.158l-.175.49a1.703 1.703 0 0 0-.349-.106 1.892 1.892 0 0 0-.364-.038c-.315.001-.47.09-.47.266 0 .073.032.133.097.177a1.1 1.1 0 0 0 .331.126l.186.046c.21.052.376.111.5.178a.672.672 0 0 1 .27.246c.058.097.087.22.087.37.001.273-.104.49-.315.648-.211.157-.501.238-.87.239M49.998 1.47l.471-.001a.47.47 0 0 0 .324-.107.352.352 0 0 0 .12-.28c0-.121-.04-.216-.12-.284a.486.486 0 0 0-.326-.102l-.47.002v.772zm.42.523L50 1.995l.003.938-.678.002-.008-2.76 1.15-.004c.356 0 .635.078.834.235.199.157.3.376.3.658a.876.876 0 0 1-.135.483.87.87 0 0 1-.386.326l.695 1.056-.783.001-.572-.937zM53.028 1.856l.73-.002-.366-1.048-.364 1.05zm.025-1.692l.683-.001 1.136 2.756-.735.002-.192-.544-1.097.004-.189.544-.726.003 1.12-2.764zM55.222.158l1.966-.006.001.525-1.287.003v.588l1.038-.003.002.524-1.038.003.003.6 1.33-.004.002.524-2.01.006zM57.698.15h.677l.007 2.207 1.288-.003.001.55-1.965.007z"/>
        <path fill="#201C16" d="M32.936 9.053l-.134-3.696.434-.001.076 3.02 1.377-2.707.405-.002.153 2.719 1.426-3.04.45-.001-1.763 3.7-.467.002-.141-2.713-1.377 2.718zM37.855 6.636c.318-.264.66-.398 1.023-.399.24 0 .426.06.559.184.131.123.198.295.198.516.001.123-.026.312-.08.566l-.341 1.532-.418.001.34-1.538c.045-.2.066-.355.066-.464 0-.148-.041-.257-.123-.328-.082-.07-.21-.104-.384-.103-.308 0-.613.132-.916.393l-.456 2.044-.417.002.878-3.964h.418l-.347 1.558zM41.781 6.577c-.278.001-.531.096-.758.285-.228.19-.376.424-.445.706.088.007.168.01.239.01.422-.001.763-.059 1.022-.174.26-.115.389-.268.388-.458a.334.334 0 0 0-.117-.272.502.502 0 0 0-.329-.097m-.515 2.505c-.36 0-.64-.098-.838-.299-.199-.2-.3-.483-.3-.849-.001-.317.08-.607.242-.87.162-.262.373-.467.632-.614.26-.146.537-.22.833-.221.245 0 .441.06.588.183.147.123.221.286.221.49 0 .306-.162.551-.487.733-.327.183-.763.274-1.311.276-.112 0-.212-.005-.301-.015v.021c0 .264.07.466.207.606.137.141.333.211.585.21.308 0 .596-.097.867-.288l.095.312c-.285.215-.63.323-1.033.325M43.878 6.635c.317-.275.648-.414.988-.415.075 0 .148.008.223.026l-.105.38a1.523 1.523 0 0 0-.245-.025c-.31 0-.618.126-.922.377l-.45 2.045-.416.001.609-2.742.35-.001-.032.354zM46.72 6.563c-.28.001-.532.096-.76.285a1.3 1.3 0 0 0-.444.706c.088.006.168.01.239.01.422-.001.763-.06 1.022-.175.26-.115.389-.267.388-.457a.334.334 0 0 0-.117-.272.502.502 0 0 0-.329-.097m-.515 2.505c-.36 0-.64-.1-.838-.299-.199-.2-.3-.483-.3-.849 0-.317.08-.607.242-.87a1.75 1.75 0 0 1 .632-.614c.26-.146.537-.22.833-.222.245 0 .441.061.588.183a.61.61 0 0 1 .221.49c0 .307-.162.551-.487.734-.326.182-.763.274-1.311.276-.112 0-.212-.005-.301-.016v.021c0 .264.07.467.207.607.138.141.333.21.585.21.308-.001.596-.097.867-.288l.095.312c-.285.215-.63.323-1.033.325M50.89 6.551c-.29 0-.573.13-.85.388l-.335 1.506c.089.084.192.15.309.194.117.046.238.068.364.068.227 0 .429-.063.607-.19.177-.125.315-.29.412-.497.098-.206.146-.43.146-.668-.001-.26-.058-.46-.17-.596-.111-.137-.272-.206-.483-.205zm-.785-.288l-.027.311c.288-.247.601-.371.938-.372.293-.001.524.097.693.294.17.197.255.464.256.802.001.33-.071.632-.217.903a1.621 1.621 0 0 1-.58.63c-.24.149-.503.224-.789.225-.144 0-.281-.025-.411-.074a1.004 1.004 0 0 1-.34-.21l-.301 1.374-.418.002.863-3.884.333-.001zM53.476 8.698a.984.984 0 0 0 .436-.115c.153-.076.294-.176.419-.3l.33-1.474a.978.978 0 0 0-.674-.267c-.222 0-.423.063-.603.189-.18.125-.318.291-.415.497-.098.207-.147.43-.146.675 0 .256.057.454.169.59.11.137.273.206.484.205zm.785.293l.027-.327c-.289.253-.601.381-.939.383-.29 0-.52-.097-.69-.291-.172-.195-.257-.461-.259-.8 0-.334.073-.636.22-.906.148-.27.342-.48.583-.63.24-.15.501-.226.783-.227.148 0 .29.027.426.08.135.056.253.131.354.23l.104-.254.334-.001-.61 2.742-.333.001zM56.435 9.038a1.9 1.9 0 0 1-.55-.078 1.505 1.505 0 0 1-.463-.226l.138-.3c.271.174.565.262.88.26.208 0 .372-.042.494-.125a.386.386 0 0 0 .183-.336c0-.07-.016-.13-.048-.18a.507.507 0 0 0-.159-.144 1.937 1.937 0 0 0-.328-.155l-.146-.058c-.23-.09-.391-.187-.484-.291a.577.577 0 0 1-.14-.398c0-.162.05-.306.15-.431a.951.951 0 0 1 .402-.289c.168-.068.356-.101.564-.102.326-.001.613.077.862.236l-.138.305a1.496 1.496 0 0 0-.746-.198.888.888 0 0 0-.491.123.37.37 0 0 0-.186.323c0 .087.032.16.095.218.063.058.173.119.329.182l.145.057c.274.109.465.218.573.329.109.11.162.252.163.424a.725.725 0 0 1-.146.447.962.962 0 0 1-.394.3c-.165.07-.351.106-.56.107M59.004 9.03a1.9 1.9 0 0 1-.55-.077 1.515 1.515 0 0 1-.463-.226l.138-.301c.271.174.565.262.88.261.207 0 .372-.042.494-.126a.385.385 0 0 0 .183-.336c0-.07-.017-.13-.048-.179a.517.517 0 0 0-.159-.144 2 2 0 0 0-.328-.155l-.145-.058c-.23-.091-.392-.188-.484-.292a.574.574 0 0 1-.14-.398c-.002-.162.048-.305.148-.43a.956.956 0 0 1 .402-.29c.169-.067.357-.1.564-.102.326 0 .614.078.863.235l-.139.307a1.493 1.493 0 0 0-.745-.198.89.89 0 0 0-.492.122c-.124.082-.185.19-.185.324 0 .087.031.16.095.219.063.057.173.117.329.18l.145.058c.274.109.466.218.573.328.108.11.162.252.162.424a.715.715 0 0 1-.146.448.952.952 0 0 1-.394.3 1.4 1.4 0 0 1-.558.106M61.324 5.417c0-.081.03-.149.09-.204a.326.326 0 0 1 .226-.082c.07 0 .128.02.173.06a.2.2 0 0 1 .067.156c0 .08-.03.149-.091.204a.33.33 0 0 1-.226.082.24.24 0 0 1-.172-.06.2.2 0 0 1-.067-.156zm-.093.814l.417-.002-.609 2.743h-.417l.61-2.741zM63.185 8.67a.96.96 0 0 0 .578-.192c.173-.127.308-.291.404-.493a1.46 1.46 0 0 0 .143-.644c0-.254-.07-.455-.205-.604a.7.7 0 0 0-.549-.223.963.963 0 0 0-.577.192 1.28 1.28 0 0 0-.404.492c-.096.2-.144.416-.143.645 0 .254.069.455.205.604.135.15.318.223.548.223m1.547-1.357c.002.32-.073.612-.223.874-.149.264-.344.467-.584.612-.241.146-.5.218-.778.22-.345 0-.62-.102-.827-.31-.206-.207-.31-.487-.31-.839-.002-.32.073-.611.222-.874a1.65 1.65 0 0 1 .585-.611c.24-.146.5-.218.778-.22.344 0 .62.102.827.31.205.207.31.486.31.838M66.015 6.565c.325-.272.673-.409 1.044-.41.24 0 .427.06.56.183.131.123.198.296.198.518 0 .123-.027.311-.08.565l-.342 1.532h-.417l.34-1.536c.044-.2.066-.356.066-.466 0-.148-.042-.256-.123-.326-.082-.07-.21-.105-.385-.105-.307 0-.612.132-.916.394l-.455 2.045-.417.001.609-2.742.35-.001-.032.348zM33.277 11.795a1.92 1.92 0 0 1 .5-.303c.173-.07.347-.106.522-.107.178 0 .328.041.448.126a.61.61 0 0 1 .242.358c.185-.159.374-.28.567-.363.193-.084.383-.126.572-.127.22 0 .393.062.521.186.128.125.193.296.193.515 0 .123-.026.312-.081.565l-.34 1.533h-.418l.34-1.537c.044-.2.066-.355.066-.465 0-.288-.156-.432-.463-.431-.145 0-.298.038-.461.112-.163.074-.32.178-.472.313-.004.11-.03.27-.076.48l-.34 1.532-.418.002.34-1.538c.045-.2.066-.356.066-.464 0-.29-.157-.433-.468-.432-.141 0-.289.034-.442.102a1.787 1.787 0 0 0-.452.291l-.456 2.045-.417.002.609-2.743h.35l-.032.348zM38.988 11.72c-.279 0-.531.096-.759.285-.227.189-.375.424-.445.706.089.007.169.01.239.01.422-.002.764-.06 1.022-.175.26-.115.39-.268.389-.457a.337.337 0 0 0-.118-.272.505.505 0 0 0-.328-.097m-.515 2.504c-.36.001-.64-.099-.839-.298-.198-.2-.299-.483-.3-.85 0-.316.08-.606.242-.87a1.75 1.75 0 0 1 .633-.613c.259-.147.536-.22.833-.222.245 0 .441.06.588.183a.61.61 0 0 1 .22.49c.001.307-.161.55-.487.733-.326.183-.763.275-1.311.276-.111 0-.212-.004-.3-.015v.022c0 .263.07.466.207.606.137.14.332.21.585.21.307-.002.596-.097.866-.288l.095.311c-.284.216-.629.324-1.032.325M41.89 11.711c-.278.001-.53.096-.758.285-.227.19-.376.424-.446.706.09.007.17.01.24.01.422-.001.763-.06 1.023-.174.258-.115.388-.268.387-.458a.334.334 0 0 0-.117-.272.502.502 0 0 0-.329-.097m-.515 2.505c-.36 0-.64-.098-.838-.299-.198-.2-.299-.483-.3-.849 0-.317.08-.607.242-.87.163-.262.373-.467.632-.614.26-.146.538-.22.834-.221.245 0 .44.06.587.183.147.123.22.286.221.49.001.306-.162.551-.487.733-.326.183-.763.274-1.312.276-.11 0-.21-.005-.3-.015v.021c.001.264.07.466.208.606.137.141.332.211.584.21.308 0 .597-.096.867-.288l.095.312c-.285.215-.63.324-1.033.325M43.96 14.208c-.215.001-.38-.052-.498-.16-.116-.106-.175-.262-.176-.466 0-.113.013-.24.043-.38l.319-1.448-.5.001.07-.338.512-.001.26-.783h.321l-.175.781.951-.002-.071.338-.951.003-.313 1.405a1.483 1.483 0 0 0-.039.327c.001.25.122.375.363.374a.804.804 0 0 0 .27-.056 1.31 1.31 0 0 0 .292-.15l.089.3c-.103.077-.223.14-.36.186-.138.046-.273.07-.406.07M46.174 14.202a1.9 1.9 0 0 1-.55-.078 1.496 1.496 0 0 1-.463-.226l.138-.3c.27.174.564.262.88.26.207 0 .372-.042.494-.125a.386.386 0 0 0 .135-.515.507.507 0 0 0-.16-.144 2 2 0 0 0-.328-.156l-.145-.058c-.23-.09-.391-.187-.484-.291a.577.577 0 0 1-.14-.398.67.67 0 0 1 .149-.43.953.953 0 0 1 .402-.29c.168-.067.356-.101.564-.102.327 0 .614.077.863.235l-.138.307a1.499 1.499 0 0 0-.746-.198.89.89 0 0 0-.492.122c-.124.081-.186.19-.185.323 0 .087.032.16.095.219.063.057.173.118.328.181l.145.058c.275.108.466.217.574.328.107.11.162.252.163.424a.716.716 0 0 1-.147.447.95.95 0 0 1-.393.3 1.42 1.42 0 0 1-.56.107M49.971 14.19c-.215 0-.38-.051-.498-.16-.116-.106-.175-.262-.176-.465 0-.113.014-.24.044-.38l.318-1.449-.501.002.072-.338.511-.002.26-.782h.322l-.176.78.951-.002-.071.338-.951.004-.314 1.405a1.48 1.48 0 0 0-.037.327c0 .25.121.374.363.374a.803.803 0 0 0 .269-.056c.102-.038.199-.088.292-.151l.089.3c-.103.078-.223.14-.36.186-.138.046-.273.07-.407.07M52.912 11.68c-.278 0-.531.095-.759.284a1.306 1.306 0 0 0-.445.706c.089.007.169.01.239.01.423-.001.764-.059 1.023-.175.258-.115.388-.267.388-.457a.337.337 0 0 0-.118-.272.505.505 0 0 0-.328-.097m-.515 2.505c-.36 0-.64-.1-.839-.299-.198-.2-.299-.483-.3-.849 0-.317.08-.606.242-.87a1.75 1.75 0 0 1 .633-.614c.259-.146.536-.221.833-.221.245 0 .441.06.588.183.147.123.22.286.22.49.002.306-.161.55-.487.733-.326.183-.763.274-1.311.276-.111 0-.212-.005-.3-.015v.02c0 .265.07.467.207.607.137.141.332.21.585.21.307-.001.596-.097.866-.288l.095.312c-.284.215-.629.323-1.032.325M55.288 14.175c-.364.001-.642-.096-.835-.293-.194-.196-.29-.481-.292-.854-.001-.318.08-.607.24-.87.16-.263.368-.467.623-.614.256-.147.528-.22.817-.222.29 0 .542.068.757.204l-.155.306a1.248 1.248 0 0 0-.628-.156c-.23.001-.44.065-.631.192a1.342 1.342 0 0 0-.6 1.132c0 .267.068.471.202.612.133.14.326.21.578.21.249 0 .504-.095.767-.283l.095.312a1.54 1.54 0 0 1-.939.324M57.744 11.713c.318-.265.659-.398 1.022-.4.241 0 .427.061.56.184.131.123.197.296.198.517 0 .123-.026.311-.081.566l-.34 1.531-.418.002.34-1.538c.044-.2.066-.356.066-.465 0-.148-.041-.256-.124-.327-.08-.07-.21-.105-.383-.104-.308 0-.613.132-.917.393l-.456 2.045-.416.001.878-3.963h.417l-.346 1.558zM60.864 11.715c.325-.273.673-.41 1.044-.41.241 0 .428.06.56.183.13.123.197.295.198.517 0 .123-.026.311-.081.565l-.341 1.532-.417.002.34-1.538c.044-.2.066-.356.066-.465 0-.147-.042-.256-.124-.327-.082-.07-.21-.105-.383-.105-.308.001-.614.132-.917.394l-.456 2.045-.417.001.61-2.742.35-.001-.032.349zM64.334 13.8a.966.966 0 0 0 .578-.192c.173-.126.308-.291.404-.491a1.46 1.46 0 0 0 .143-.645c0-.253-.07-.455-.205-.604a.703.703 0 0 0-.548-.222.958.958 0 0 0-.578.191 1.284 1.284 0 0 0-.404.492 1.47 1.47 0 0 0-.143.644c0 .254.069.456.205.605.135.15.318.223.548.223m1.547-1.357a1.723 1.723 0 0 1-.807 1.486c-.24.145-.5.218-.778.22-.345 0-.62-.103-.827-.31-.206-.207-.31-.487-.31-.838-.001-.32.073-.612.222-.875.15-.263.344-.467.585-.612.24-.145.5-.218.778-.219.344 0 .62.102.827.31.206.207.31.486.31.838M67.12 10.128l.418-.001-.88 3.962-.416.002zM68.8 13.788a.966.966 0 0 0 .577-.192c.174-.127.308-.292.404-.492a1.47 1.47 0 0 0 .144-.645c-.001-.254-.07-.455-.205-.604a.707.707 0 0 0-.55-.223.96.96 0 0 0-.576.192c-.175.127-.31.291-.406.492a1.482 1.482 0 0 0-.142.645c0 .254.069.455.205.604.135.149.318.223.548.223m1.547-1.357c.001.32-.073.612-.222.875-.15.263-.345.466-.585.611-.24.145-.5.218-.778.22-.345 0-.62-.103-.826-.31-.207-.207-.31-.487-.312-.838a1.734 1.734 0 0 1 .808-1.487c.24-.145.5-.218.778-.219.345 0 .62.102.826.31.207.207.31.486.311.838M71.902 13.726c.304-.001.592-.136.866-.404l.319-1.432a.982.982 0 0 0-.674-.267c-.227 0-.428.063-.605.189-.178.125-.316.29-.414.492-.097.203-.145.42-.145.652.001.25.058.441.171.573.114.131.274.197.482.197m-.401 1.542c-.175.001-.346-.018-.512-.058a1.328 1.328 0 0 1-.413-.165l.133-.323a1.7 1.7 0 0 0 .807.198c.308 0 .55-.072.728-.213.178-.142.299-.362.365-.661l.065-.312c-.27.227-.569.34-.9.34-.289.002-.518-.095-.689-.288-.171-.193-.258-.451-.258-.775a1.775 1.775 0 0 1 .222-.89c.15-.266.344-.474.582-.623.239-.149.5-.223.781-.224.148 0 .29.027.425.08.136.055.254.131.354.23l.106-.254.333-.002-.61 2.737c-.175.8-.682 1.202-1.52 1.203M73.719 15.262a.834.834 0 0 1-.44-.115l.139-.311a.666.666 0 0 0 .3.078c.13 0 .255-.055.377-.165.122-.109.263-.297.422-.56l.116-.197-.508-2.664.445-.002.368 2.216 1.31-2.22.474-.002-1.733 2.782a6.82 6.82 0 0 1-.473.688 1.638 1.638 0 0 1-.383.36.775.775 0 0 1-.414.112"/>
        <g transform="translate(0 .086)">
            <mask id="b" fill="#fff">
                <use xlink:href="#a"/>
            </mask>
            <path fill="#0F61A9" d="M6.006 15.848C1.747 14.761-.832 10.397.244 6.098 1.322 1.802 5.647-.801 9.907.286c4.258 1.086 6.838 5.452 5.761 9.75-1.077 4.297-5.403 6.9-9.662 5.813" mask="url(#b)"/>
        </g>
        <g transform="translate(13.916)">
            <mask id="d" fill="#fff">
                <use xlink:href="#c"/>
            </mask>
            <path fill="#209DD8" d="M6.253 15.873C1.986 14.817-.626 10.473.42 6.166 1.467 1.86 5.773-.774 10.04.281c4.266 1.056 6.877 5.401 5.831 9.708-1.046 4.305-5.353 6.94-9.62 5.884" mask="url(#d)"/>
        </g>
        <path fill="#F8B12D" d="M24.375 7.58c.004.778-.375 2.376-.963 2.789-.362.254-.8.404-1.274.406-.277.002-.392.104-.637.012-.858-.318-1.628-2.207-1.633-3.183a2.263 2.263 0 0 1 2.241-2.287 2.264 2.264 0 0 1 2.266 2.262"/>
        <path fill="#FEFEFE" d="M18.867 7.777a.277.277 0 0 0-.277-.276l-.826.004a.276.276 0 0 0-.274.28c.001.153.125.277.277.276l.826-.005a.277.277 0 0 0 .274-.279zm7.984-.043a.276.276 0 0 0-.277-.276l-.826.004a.277.277 0 0 0-.274.28c0 .153.125.277.277.277l.826-.005a.276.276 0 0 0 .274-.28zm-1.87-2.306l.582-.592a.28.28 0 0 0-.003-.394.274.274 0 0 0-.389.003l-.581.592a.28.28 0 0 0 .002.393.274.274 0 0 0 .39-.002zm-5.258-.365l-.588-.586a.274.274 0 0 0-.389.001.28.28 0 0 0 .003.394l.587.586a.273.273 0 0 0 .389-.003.28.28 0 0 0-.002-.392zm2.704-.917l-.005-.833a.276.276 0 0 0-.276-.277.277.277 0 0 0-.274.28l.004.833c0 .154.125.277.277.276a.276.276 0 0 0 .274-.279zm.9 8.33a.276.276 0 0 0-.277-.276l-1.713.009a.277.277 0 0 0-.274.28c0 .153.125.277.277.276l1.714-.009a.277.277 0 0 0 .273-.28zm.24-.834a.277.277 0 0 0-.277-.277l-2.202.012a.277.277 0 0 0-.274.28c.001.153.125.277.277.276l2.203-.012a.276.276 0 0 0 .273-.28zm-2.345-1.099l1.927-.01-.004-.615c0-.1.051-.192.137-.242a2.233 2.233 0 0 0 1.09-1.929 2.215 2.215 0 0 0-2.213-2.21c-1.215.006-2.197 1.009-2.191 2.234.004.79.43 1.523 1.111 1.917.086.05.139.14.139.24l.004.615zm2.205.543l-2.478.014a.276.276 0 0 1-.277-.276l-.004-.739a2.793 2.793 0 0 1-1.251-2.311c-.008-1.532 1.221-2.785 2.74-2.793 1.517-.008 2.758 1.232 2.767 2.764a2.796 2.796 0 0 1-1.227 2.324l.004.739a.277.277 0 0 1-.274.278z"/>
        <path fill="#E51170" d="M7.84 6s-2.11-1.202-2.558-.593c-.448.609-.822.687-1.007 1.256-.185.57-.18 1.48.574 2.082.754.603 3.018 2.561 3.018 2.561l2.095-1.83s1.194-1.523 1.491-1.98c.298-.456-.008-1.667-.61-1.815-.602-.149-1.204-.449-1.504-.295-.3.153-1.5.614-1.5.614"/>
        <path fill="#FEFEFE" d="M6.998 6.014l.598.594c.108.106.3.106.406-.001l.59-.595A1.544 1.544 0 0 1 10.796 6a1.56 1.56 0 0 1 .011 2.214l-2.986 3.04-3.019-3.01a1.564 1.564 0 0 1-.014-2.218c.65-.6 1.601-.631 2.209-.012M5.889 4.98a2.13 2.13 0 0 0-1.508.636 2.164 2.164 0 0 0 .015 3.043l3.225 3.213c.107.106.3.105.406-.002 1.064-1.082 2.128-2.16 3.193-3.242a2.162 2.162 0 0 0-.016-3.042 2.132 2.132 0 0 0-3.024.016l-.383.39-.392-.392a2.128 2.128 0 0 0-1.516-.62"/>
    </g>
</svg>
