<svg xmlns="http://www.w3.org/2000/svg" xmlns:xlink="http://www.w3.org/1999/xlink" width="94" height="94" viewBox="0 0 94 94">
    <defs>
        <circle id="a" cx="44" cy="44" r="44"/>
    </defs>
    <g fill="none" fill-rule="evenodd">
        <use fill="#D8D8D8" stroke="#009FDB" transform="translate(3 3)" xlink:href="#a"/>
        <g fill="#FFF" fill-rule="nonzero" stroke="#FFF" stroke-width=".5">
            <path d="M47.5 57C38.404 57 31 49.597 31 40.5 31 31.401 38.402 24 47.5 24 56.6 24 64 31.4 64 40.5 64 49.597 56.598 57 47.5 57zm0-30.129c-7.516 0-13.629 6.115-13.629 13.628 0 7.517 6.115 13.63 13.63 13.63 7.513 0 13.628-6.115 13.628-13.63-.001-7.513-6.115-13.628-13.628-13.628zM47 93c-10.558 0-20.494-3.49-28.734-10.09l1.855-2.316c7.707 6.174 17.003 9.438 26.879 9.438 9.88 0 19.176-3.265 26.884-9.443l1.855 2.316C67.499 89.51 57.563 93 47 93z"/>
            <path d="M20.112 84.39l-1.846-1.48C7.293 74.12 1 61.03 1 47 1 21.637 21.636 1 47 1s46 20.636 46 46c0 14.029-6.292 27.116-17.261 35.906l-1.846 1.48-.528-2.305C70.53 69.713 59.69 61.075 47.002 61.075c-12.69 0-23.53 8.64-26.363 21.01l-.527 2.305zM47 3.968C23.272 3.968 3.967 23.272 3.967 47c0 12.36 5.221 23.937 14.403 32.115 3.898-12.484 15.353-21.01 28.632-21.01 13.277 0 24.732 8.524 28.632 21.005 9.18-8.175 14.399-19.752 14.399-32.11C90.033 23.272 70.728 3.968 47 3.968z"/>
        </g>
    </g>
</svg>
