<svg xmlns="http://www.w3.org/2000/svg" width="16" height="16" viewBox="0 0 16 16">
    <path fill="#209DD8" fill-rule="evenodd" d="M12.182 1.178A7.718 7.718 0 0 0 8.07 0 7.76 7.76 0 0 0 3.9 1.213c-.363.232-.567.419-.567.658 0 .705 1.584 1.462 4.396 1.462 2.78 0 4.938-.83 4.938-1.629 0-.19-.16-.324-.485-.526m1.145.955a.365.365 0 0 1 .051.198c0 .955-2.755 2.643-7.14 2.643-3.221 0-3.824-1.267-3.824-2.073 0-.288.104-.583.334-.883.012-.018.001-.024-.013-.01a8.37 8.37 0 0 0-1.14 1.256c-.162.215-.262.407-.262.521 0 1.67 3.95 2.882 7.643 2.882 3.934 0 5.69-1.362 5.69-2.56 0-.428-.157-.677-.558-1.162a9.927 9.927 0 0 0-.768-.823c-.013-.011-.022-.003-.013.011M.605 4.767A7.37 7.37 0 0 0 .018 6.36a.476.476 0 0 0 .044.372c.503 1 3.047 2.601 8.985 2.601 3.622 0 6.435-.833 6.89-2.355.085-.28.089-.576-.018-.974a7.189 7.189 0 0 0-.538-1.33c-.006-.012-.017-.01-.015.004.071 1.996-5.868 3.282-8.865 3.282C3.256 7.96.547 6.748.547 5.218c0-.146.032-.294.073-.446.004-.015-.009-.017-.015-.005m5.787 6.46c-4.094 0-6.026-2.03-6.375-3.416C.012 7.79 0 7.795 0 7.813c0 .466.044 1.07.12 1.468.035.195.183.5.402.744.991 1.1 3.463 2.642 7.744 2.642 5.833 0 7.166-2.069 7.439-2.75.195-.485.295-1.365.295-2.104 0-.179-.004-.321-.01-.462 0-.022-.013-.025-.017-.002-.292 1.665-5.274 3.878-9.581 3.878m2.04 3.44c1.967 0 4.13-.564 5.424-1.68.353-.303.691-.708.994-1.253.173-.312.343-.684.481-1.05.007-.017-.004-.026-.017-.006-1.202 1.86-4.686 3.021-8.282 3.021-2.542 0-5.277-.855-6.35-2.487-.009-.015-.02-.007-.013.01.997 2.228 4.024 3.445 7.763 3.445M3.34 14.32c-.013-.011-.006-.023.01-.015.862.49 2.388 1.04 4.803 1.04 2.78 0 4.544-.92 5.163-1.342.017-.01.025 0 .008.015A7.741 7.741 0 0 1 8.154 16a7.753 7.753 0 0 1-4.814-1.68"/>
</svg>
