<svg xmlns="http://www.w3.org/2000/svg" width="83" height="28" viewBox="0 0 83 28">
    <g fill="#FFF" fill-rule="evenodd">
        <path d="M21.162 1.973A13.84 13.84 0 0 0 14 0c-2.644 0-5.154.741-7.26 2.033-.63.388-.987.7-.987 1.1 0 1.182 2.76 2.45 7.653 2.45 4.843 0 8.599-1.39 8.599-2.728 0-.32-.278-.544-.843-.882m2.084 1.556a.576.576 0 0 1 .088.324c0 1.555-4.758 4.307-12.335 4.307-5.565 0-6.607-2.066-6.607-3.38 0-.469.18-.95.576-1.438.022-.029.004-.04-.022-.018a14.03 14.03 0 0 0-1.97 2.047c-.279.351-.452.665-.452.851 0 2.722 6.824 4.696 13.204 4.696 6.799 0 9.832-2.22 9.832-4.171 0-.697-.27-1.104-.964-1.893a16.154 16.154 0 0 0-1.329-1.343c-.02-.017-.036-.004-.02.018M1.35 7.995c-.41.815-.865 2.19-1.002 2.901-.058.305-.033.451.074.68.859 1.823 5.203 4.739 15.336 4.739 6.182 0 10.985-1.52 11.763-4.293.142-.51.15-1.05-.034-1.775-.206-.811-.59-1.758-.917-2.422-.011-.021-.03-.018-.026.008.121 3.635-10.017 5.98-15.13 5.98-5.54 0-10.162-2.209-10.162-4.997 0-.267.055-.535.124-.815.007-.025-.015-.03-.026-.006m9.838 11.62c-7.166 0-10.545-3.34-11.159-5.62C.022 13.965 0 13.972 0 14c0 .767.078 1.758.21 2.415.062.319.322.822.704 1.22 1.735 1.81 6.061 4.345 13.553 4.345 10.207 0 12.538-3.401 13.016-4.52.342-.8.517-2.246.517-3.46 0-.293-.006-.528-.019-.76 0-.036-.021-.04-.028-.003-.51 2.736-9.231 6.378-16.765 6.378m3.764 6.157c3.444 0 7.23-.938 9.493-2.799.62-.506 1.211-1.18 1.74-2.086a13.47 13.47 0 0 0 .843-1.75c.012-.03-.007-.044-.029-.012-2.106 3.1-8.203 5.034-14.5 5.034-4.45 0-9.236-1.423-11.111-4.142-.02-.026-.038-.015-.027.014 1.747 3.713 7.044 5.741 13.591 5.741m-9.537-.714A13.994 13.994 0 0 0 14 28c3.537 0 6.763-1.314 9.223-3.471.03-.025.016-.044-.014-.025-1.105.737-4.252 2.347-9.209 2.347-4.307 0-7.029-.961-8.566-1.819-.03-.015-.04.006-.019.026M44.752 7.54h2.088l4.752 12.6h-2.214l-1.044-3.006h-5.148L42.16 20.14H40l4.752-12.6zm-.936 7.794h3.906l-1.962-5.67-1.944 5.67zm11.16-5.904h-3.978V7.54h10.026v1.89h-3.978v10.71h-2.07V9.43zm10.368 10.908c-1.176 0-2.118-.306-2.826-.918-.708-.612-1.062-1.422-1.062-2.43 0-.72.234-1.389.702-2.007.468-.618 1.164-1.167 2.088-1.647-.588-.624-.993-1.152-1.215-1.584a3.027 3.027 0 0 1-.333-1.404c0-.888.327-1.611.981-2.169.654-.558 1.497-.837 2.529-.837 1.032 0 1.857.258 2.475.774.618.516.927 1.2.927 2.052 0 1.212-.936 2.322-2.808 3.33l2.34 2.466c.24-.348.48-.744.72-1.188l.738-1.386h1.872l-1.062 1.944a20.834 20.834 0 0 1-1.08 1.764l2.97 3.042h-2.412l-1.638-1.674c-.54.636-1.128 1.107-1.764 1.413-.636.306-1.35.459-2.142.459zm.234-1.62c.972 0 1.812-.444 2.52-1.332l-2.862-2.988c-.624.384-1.083.771-1.377 1.161-.294.39-.441.813-.441 1.269 0 .564.195 1.02.585 1.368.39.348.915.522 1.575.522zm-1.044-8.424c0 .324.081.627.243.909.162.282.507.705 1.035 1.269.696-.408 1.197-.786 1.503-1.134.306-.348.459-.708.459-1.08 0-.408-.141-.738-.423-.99-.282-.252-.657-.378-1.125-.378-.504 0-.912.129-1.224.387a1.255 1.255 0 0 0-.468 1.017zM76.54 9.43h-3.978V7.54h10.026v1.89H78.61v10.71h-2.07V9.43z"/>
    </g>
</svg>
